<?xml version="1.0" encoding="utf-8" ?>
<svg baseProfile="full" height="800mm" version="1.1" viewBox="0 0 1200 800" width="1200mm" xmlns="http://www.w3.org/2000/svg" xmlns:ev="http://www.w3.org/2001/xml-events" xmlns:xlink="http://www.w3.org/1999/xlink"><defs><filter height="200%" id="glow" width="200%" x="-50%" y="-50%"><feGaussianBlur in="SourceGraphic" stdDeviation="2" /></filter></defs><rect fill="#FCFCFA" height="100%" width="100%" x="0" y="0" /><g id="branches" opacity="0.8"><path d="M 600.0,700.0 C 609.7083546587766,696.0466075135676 586.3548755178368,716.6976341625476 581.0484382192178,723.1911585590939" fill="none" opacity="0.25" stroke="#8B7355" stroke-linecap="round" stroke-linejoin="round" stroke-width="3.5999999999999996" /><path d="M 581.0484382192178,723.1911585590939 C 566.1186189713253,741.4608826821785 547.3890462490359,758.1692201333374 534.7277879198872,772.1681209401834" fill="none" opacity="0.25" stroke="#8B7355" stroke-linecap="round" stroke-linejoin="round" stroke-width="2.4" /><path d="M 581.0484382192178,723.1911585590939 C 546.7719326796744,765.1355578658198 516.161770892597,813.786163740998 490.45651067506367,848.6736247388942" fill="none" opacity="0.25" stroke="#8B7355" stroke-linecap="round" stroke-linejoin="round" stroke-width="2.4" /><path d="M 600.0,700.0 C 691.4859629381168,662.7454979545247 772.3080562103938,807.7145136301115 839.316744736658,849.6034911529325" fill="none" opacity="0.7" stroke="#FF6347" stroke-linecap="round" stroke-linejoin="round" stroke-width="6.0" /><path d="M 600.0,700.0 C 674.5297073072932,669.6503480516857 515.6366043169446,557.5666632308679 482.82861710686757,502.17592115398327" fill="none" opacity="0.25" stroke="#DDA0DD" stroke-linecap="round" stroke-linejoin="round" stroke-width="2.4" /><path d="M 839.316744736658,849.6034911529325 C 955.3404250932487,922.1330906043122 516.5405694137914,879.8504136685093 470.4638731927007,979.143121726007" fill="none" opacity="0.7" stroke="#9370DB" stroke-linecap="round" stroke-linejoin="round" stroke-width="4.8" /><path d="M 470.4638731927007,979.143121726007 C 470.4638731927007,979.143121726007 470.4638731927007,979.143121726007 470.4638731927007,979.143121726007" fill="none" opacity="0.7" stroke="#9370DB" stroke-linecap="round" stroke-linejoin="round" stroke-width="2.4" /><path d="M 470.4638731927007,979.143121726007 C 459.49579910445607,1002.7787090773977 447.9009779254546,1027.7649014202964 439.12651865485884,1046.673371301409" fill="none" opacity="0.7" stroke="#9370DB" stroke-linecap="round" stroke-linejoin="round" stroke-width="3.5999999999999996" /><path d="M 439.12651865485884,1046.673371301409 C 422.76540834915505,1081.9306506272899 405.46937745455386,1119.2026316289357 392.38048920999086,1147.4084550896405" fill="none" opacity="0.7" stroke="#9370DB" stroke-linecap="round" stroke-linejoin="round" stroke-width="6.0" /><path d="M 392.38048920999086,1147.4084550896405 C 384.640405191074,1164.0879040488962 348.24461157595186,1125.0464284007985 340.7480092837688,1137.703174496205" fill="none" opacity="0.7" stroke="#9370DB" stroke-linecap="round" stroke-linejoin="round" stroke-width="3.5999999999999996" /><path d="M 392.38048920999086,1147.4084550896405 C 390.0990959304721,1152.324730244887 387.68733732069524,1157.5219354090048 385.86222269708026,1161.454955533202" fill="none" opacity="0.7" stroke="#9370DB" stroke-linecap="round" stroke-linejoin="round" stroke-width="3.5999999999999996" /><path d="M 392.38048920999086,1147.4084550896405 C 384.18216079572954,1165.0753951387 435.7088116815465,1173.1373367559993 430.5977954336204,1187.8564013656792" fill="none" opacity="0.7" stroke="#9370DB" stroke-linecap="round" stroke-linejoin="round" stroke-width="6.0" /><path d="M 430.5977954336204,1187.8564013656792 C 427.07928419074136,1197.989257886109 423.35971516255495,1208.7011347791351 420.5449061682517,1216.807419995479" fill="none" opacity="0.7" stroke="#9370DB" stroke-linecap="round" stroke-linejoin="round" stroke-width="3.5999999999999996" /><path d="M 839.316744736658,849.6034911529325 C 934.0886403674483,908.8480144107979 575.4202149170999,925.4031801040337 565.7273861516546,1014.289003172322" fill="none" opacity="0.25" stroke="#4169E1" stroke-linecap="round" stroke-linejoin="round" stroke-width="3.5999999999999996" /><path d="M 565.7273861516546,1014.289003172322 C 563.3217570962951,1036.349262747412 534.8758219558697,1050.2895814160686 531.6309031974525,1067.7433331216926" fill="none" opacity="0.25" stroke="#4169E1" stroke-linecap="round" stroke-linejoin="round" stroke-width="4.8" /><path d="M 531.6309031974525,1067.7433331216926 C 522.9023767973848,1114.6922843543202 490.92470656644764,1157.6993698250744 482.06853854041356,1194.861429141927" fill="none" opacity="0.25" stroke="#4169E1" stroke-linecap="round" stroke-linejoin="round" stroke-width="2.4" /><path d="M 531.6309031974525,1067.7433331216926 C 522.9023767973848,1114.6922843543202 537.2862378379012,1166.3186858912707 532.1943091547973,1204.180574738247" fill="none" opacity="0.25" stroke="#4169E1" stroke-linecap="round" stroke-linejoin="round" stroke-width="3.5999999999999996" /><path d="M 565.7273861516546,1014.289003172322 C 558.6230904243737,1079.437288396453 585.0113784097391,1148.3094929824683 583.2595114845276,1200.707811819513" fill="none" opacity="0.7" stroke="#87CEEB" stroke-linecap="round" stroke-linejoin="round" stroke-width="3.5999999999999996" /><path d="M 583.2595114845276,1200.707811819513 C 583.1690832863899,1203.4125181471982 583.0734877626442,1206.2717791221796 583.001145204134,1208.4355441843277" fill="none" opacity="0.7" stroke="#87CEEB" stroke-linecap="round" stroke-linejoin="round" stroke-width="2.4" /><path d="M 839.316744736658,849.6034911529325 C 957.6059972893877,923.5493622086012 646.346856483075,1094.4055879514642 659.3714564827217,1205.2432026356264" fill="none" opacity="0.25" stroke="#FFA500" stroke-linecap="round" stroke-linejoin="round" stroke-width="4.8" /><path d="M 659.3714564827217,1205.2432026356264 C 660.7936110455161,1217.3455489231592 634.8687493351729,1220.8790436144407 635.5198770021126,1230.6057692037743" fill="none" opacity="0.25" stroke="#FFA500" stroke-linecap="round" stroke-linejoin="round" stroke-width="2.4" /><path d="M 635.5198770021126,1230.6057692037743 C 635.6987552574018,1233.2779021685346 635.8878551272791,1236.1027284455672 636.0309577315105,1238.2404348173754" fill="none" opacity="0.25" stroke="#FFA500" stroke-linecap="round" stroke-linejoin="round" stroke-width="3.5999999999999996" /><path d="M 636.0309577315105,1238.2404348173754 C 636.2093893274872,1240.905895461506 636.3980170146626,1243.723668142444 636.540762291444,1245.8560366577485" fill="none" opacity="0.25" stroke="#FFA500" stroke-linecap="round" stroke-linejoin="round" stroke-width="3.5999999999999996" /><path d="M 659.3714564827217,1205.2432026356264 C 661.0224281067323,1219.2927516982877 687.8432068878138,1220.7714149090477 689.725552182345,1231.9307481928645" fill="none" opacity="0.25" stroke="#FFA500" stroke-linecap="round" stroke-linejoin="round" stroke-width="2.4" /><path d="M 600.0,700.0 C 699.753370050226,659.3788816422804 459.79630949925087,528.4317643799588 405.27265208229284,461.71078386105404" fill="none" opacity="0.7" stroke="#228B22" stroke-linecap="round" stroke-linejoin="round" stroke-width="3.5999999999999996" /><path d="M 405.27265208229284,461.71078386105404 C 362.47248906115715,409.33592534228245 317.22660243881364,353.9682177652953 282.9864720219051,312.06833095027804" fill="none" opacity="0.7" stroke="#228B22" stroke-linecap="round" stroke-linejoin="round" stroke-width="3.5999999999999996" /><path d="M 282.9864720219051,312.06833095027804 C 275.3305216831024,302.699691031231 294.84287836894026,285.83740880116767 289.10138889754717,278.04499634130735" fill="none" opacity="0.7" stroke="#228B22" stroke-linecap="round" stroke-linejoin="round" stroke-width="6.0" /><path d="M 289.10138889754717,278.04499634130735 C 287.5087420377112,275.8834385614702 285.8250867858847,273.59836319421373 284.55096929801596,271.869116970344" fill="none" opacity="0.7" stroke="#228B22" stroke-linecap="round" stroke-linejoin="round" stroke-width="4.8" /><path d="M 282.9864720219051,312.06833095027804 C 274.0767306993858,301.1654182446568 250.83707693500904,313.9485508985885 243.28115581786403,305.5943583315076" fill="none" opacity="0.7" stroke="#228B22" stroke-linecap="round" stroke-linejoin="round" stroke-width="3.5999999999999996" /><path d="M 243.28115581786403,305.5943583315076 C 237.90521551231458,299.6504581973752 232.2220786178766,293.36690662700676 227.92132637343707,288.61178651970084" fill="none" opacity="0.7" stroke="#228B22" stroke-linecap="round" stroke-linejoin="round" stroke-width="4.8" /><path d="M 839.316744736658,849.6034911529325 C 976.2246525765937,935.1883966380727 955.2176084082081,510.45010596320924 1069.1742768612419,449.6409739867463" fill="none" opacity="0.7" stroke="#00CED1" stroke-linecap="round" stroke-linejoin="round" stroke-width="6.0" /><path d="M 1069.1742768612419,449.6409739867463 C 1305.671364804537,323.4422808517319 746.5764210302543,990.0649255715407 843.2951903643979,1181.4648958470375" fill="none" opacity="0.7" stroke="#8B008B" stroke-linecap="round" stroke-linejoin="round" stroke-width="6.0" /><path d="M 843.2951903643979,1181.4648958470375 C 860.5045540163679,1215.5210745404165 736.4706170289563,1198.1983126610369 744.5354201050094,1227.6396046541745" fill="none" opacity="0.7" stroke="#8B008B" stroke-linecap="round" stroke-linejoin="round" stroke-width="3.5999999999999996" /><path d="M 843.2951903643979,1181.4648958470375 C 851.9735978514581,1198.6388833418887 791.0913630441609,1196.157201950504 796.6239876551066,1210.522328153382" fill="none" opacity="0.7" stroke="#8B008B" stroke-linecap="round" stroke-linejoin="round" stroke-width="2.4" /><path d="M 843.2951903643979,1181.4648958470375 C 844.5000306418523,1183.8491941055772 845.7737189351612,1186.3697379788905 846.7375911571248,1188.2771765857221" fill="none" opacity="0.7" stroke="#8B008B" stroke-linecap="round" stroke-linejoin="round" stroke-width="2.4" /><path d="M 843.2951903643979,1181.4648958470375 C 852.2775846192496,1199.2404528068437 889.8965444336518,1154.1155371051002 898.4697761759329,1167.5452857934758" fill="none" opacity="0.7" stroke="#8B008B" stroke-linecap="round" stroke-linejoin="round" stroke-width="2.4" /><path d="M 843.2951903643979,1181.4648958470375 C 862.4460610322495,1219.3631869627282 941.4802010297267,1132.421944121 962.5329436875138,1159.0813752731062" fill="none" opacity="0.7" stroke="#8B008B" stroke-linecap="round" stroke-linejoin="round" stroke-width="2.4" /><path d="M 1069.1742768612419,449.6409739867463 C 1261.671351993958,346.9214034189845 866.4965550315025,949.2531607985726 993.9782471819894,1068.4862769966537" fill="none" opacity="0.7" stroke="#00BFFF" stroke-linecap="round" stroke-linejoin="round" stroke-width="4.8" /><path d="M 993.9782471819894,1068.4862769966537 C 995.9292962756225,1070.3110854014144 997.9918338888917,1072.2401685721613 999.5526731637982,1073.7000152959697" fill="none" opacity="0.7" stroke="#00BFFF" stroke-linecap="round" stroke-linejoin="round" stroke-width="4.8" /><path d="M 999.5526731637982,1073.7000152959697 C 1001.498930259191,1075.5203417639646 1003.556402045749,1077.4446868872735 1005.1134077220632,1078.9009480616694" fill="none" opacity="0.7" stroke="#00BFFF" stroke-linecap="round" stroke-linejoin="round" stroke-width="6.0" /><path d="M 1005.1134077220632,1078.9009480616694 C 1008.9918980280479,1082.5284845143601 1013.0920163515174,1086.3633087643477 1016.194808596305,1089.2653379265003" fill="none" opacity="0.7" stroke="#00BFFF" stroke-linecap="round" stroke-linejoin="round" stroke-width="4.8" /><path d="M 1016.194808596305,1089.2653379265003 C 1016.194808596305,1089.2653379265003 1016.194808596305,1089.2653379265003 1016.194808596305,1089.2653379265003" fill="none" opacity="0.7" stroke="#00BFFF" stroke-linecap="round" stroke-linejoin="round" stroke-width="6.0" /><path d="M 1016.194808596305,1089.2653379265003 C 1018.1272104439054,1091.072705636715 1020.1700352542257,1092.983351501799 1021.7159567323059,1094.4292456699707" fill="none" opacity="0.7" stroke="#00BFFF" stroke-linecap="round" stroke-linejoin="round" stroke-width="6.0" /><path d="M 1021.7159567323059,1094.4292456699707 C 1029.1146645634267,1101.3492274780433 995.7868569025069,1109.240600420171 1001.4209742910477,1115.0662349573283" fill="none" opacity="0.7" stroke="#00BFFF" stroke-linecap="round" stroke-linejoin="round" stroke-width="3.5999999999999996" /><path d="M 1001.4209742910477,1115.0662349573283 C 1003.2561396813095,1116.9637820160121 1005.1961716653005,1118.969760335192 1006.6643039775099,1120.487797982139" fill="none" opacity="0.7" stroke="#00BFFF" stroke-linecap="round" stroke-linejoin="round" stroke-width="4.8" /><path d="M 1006.6643039775099,1120.487797982139 C 1006.6643039775099,1120.487797982139 1006.6643039775099,1120.487797982139 1006.6643039775099,1120.487797982139" fill="none" opacity="0.7" stroke="#00BFFF" stroke-linecap="round" stroke-linejoin="round" stroke-width="6.0" /><path d="M 1069.1742768612419,449.6409739867463 C 1232.5744900341335,362.4479622683696 976.4371818767096,906.2932395168667 1106.3721648446071,977.499565176258" fill="none" opacity="0.7" stroke="#7B68EE" stroke-linecap="round" stroke-linejoin="round" stroke-width="4.8" /><path d="M 1106.3721648446071,977.499565176258 C 1106.3721648446071,977.499565176258 1106.3721648446071,977.499565176258 1106.3721648446071,977.499565176258" fill="none" opacity="0.7" stroke="#7B68EE" stroke-linecap="round" stroke-linejoin="round" stroke-width="3.5999999999999996" /><path d="M 1106.3721648446071,977.499565176258 C 1124.3993506410277,987.3787342285171 1068.7124908269645,1021.7529113282621 1082.2707209685325,1031.0601094633307" fill="none" opacity="0.7" stroke="#7B68EE" stroke-linecap="round" stroke-linejoin="round" stroke-width="3.5999999999999996" /><path d="M 1106.3721648446071,977.499565176258 C 1108.687132748703,978.7682024185534 1111.134384533033,980.1093332175515 1112.9863588563098,981.1242430113878" fill="none" opacity="0.7" stroke="#7B68EE" stroke-linecap="round" stroke-linejoin="round" stroke-width="4.8" /><path d="M 1106.3721648446071,977.499565176258 C 1124.3993506410277,987.3787342285171 1123.408962285685,921.9445723698877 1138.5493720415843,928.3646606964301" fill="none" opacity="0.7" stroke="#7B68EE" stroke-linecap="round" stroke-linejoin="round" stroke-width="4.8" /><path d="M 1112.9863588563098,981.1242430113878 C 1112.9863588563098,981.1242430113878 1112.9863588563098,981.1242430113878 1112.9863588563098,981.1242430113878" fill="none" opacity="0.7" stroke="#7B68EE" stroke-linecap="round" stroke-linejoin="round" stroke-width="6.0" /><path d="M 1112.9863588563098,981.1242430113878 C 1115.2960712279955,982.390000142848 1117.7377671637773,983.7280862532488 1119.585537061126,984.7406919584168" fill="none" opacity="0.7" stroke="#7B68EE" stroke-linecap="round" stroke-linejoin="round" stroke-width="6.0" /><path d="M 1069.1742768612419,449.6409739867463 C 1192.807139306073,383.668467497281 1043.4522951657134,813.5432965736717 1152.0558268525742,841.350578533192" fill="none" opacity="0.7" stroke="#008B8B" stroke-linecap="round" stroke-linejoin="round" stroke-width="4.8" /><path d="M 1152.0558268525742,841.350578533192 C 1162.1366001064134,843.9316999745071 1143.5483412145613,868.6102810993691 1151.4993542997079,871.0767085533021" fill="none" opacity="0.7" stroke="#008B8B" stroke-linecap="round" stroke-linejoin="round" stroke-width="4.8" /><path d="M 1151.4993542997079,871.0767085533021 C 1151.4993542997079,871.0767085533021 1151.4993542997079,871.0767085533021 1151.4993542997079,871.0767085533021" fill="none" opacity="0.7" stroke="#008B8B" stroke-linecap="round" stroke-linejoin="round" stroke-width="4.8" /><path d="M 1151.4993542997079,871.0767085533021 C 1154.0206289529567,871.8588153058737 1156.6859764435342,872.685613872878 1158.7029961661333,873.3112992749353" fill="none" opacity="0.7" stroke="#008B8B" stroke-linecap="round" stroke-linejoin="round" stroke-width="4.8" /><path d="M 1158.7029961661333,873.3112992749353 C 1158.7029961661333,873.3112992749353 1158.7029961661333,873.3112992749353 1158.7029961661333,873.3112992749353" fill="none" opacity="0.7" stroke="#008B8B" stroke-linecap="round" stroke-linejoin="round" stroke-width="4.8" /><path d="M 1158.7029961661333,873.3112992749353 C 1161.2185469211665,874.0916304575825 1163.8778434336302,874.916551993524 1165.8902840376568,875.5408169396417" fill="none" opacity="0.7" stroke="#008B8B" stroke-linecap="round" stroke-linejoin="round" stroke-width="4.8" /><path d="M 1152.0558268525742,841.350578533192 C 1163.1243907259302,844.1846178294537 1164.2874615551953,814.6964757234246 1173.244800775976,816.5171350690199" fill="none" opacity="0.7" stroke="#20B2AA" stroke-linecap="round" stroke-linejoin="round" stroke-width="3.5999999999999996" /><path d="M 1173.244800775976,816.5171350690199 C 1173.244800775976,816.5171350690199 1173.244800775976,816.5171350690199 1173.244800775976,816.5171350690199" fill="none" opacity="0.7" stroke="#20B2AA" stroke-linecap="round" stroke-linejoin="round" stroke-width="3.5999999999999996" /><path d="M 1069.1742768612419,449.6409739867463 C 1161.5872312947185,400.3279182545476 1093.00651018335,724.7360282599415 1176.6988231515472,728.9351927252368" fill="none" opacity="0.7" stroke="#FF4500" stroke-linecap="round" stroke-linejoin="round" stroke-width="6.0" /><path d="M 1176.6988231515472,728.9351927252368 C 1186.8165956259663,729.4428401917212 1166.4606322580732,756.9864653300358 1174.5243302876297,757.7976808356243" fill="none" opacity="0.7" stroke="#FF4500" stroke-linecap="round" stroke-linejoin="round" stroke-width="4.8" /><path d="M 1174.5243302876297,757.7976808356243 C 1177.1508675996604,758.0619129268703 1179.9274927580927,758.341243994759 1182.0287226077173,758.5526296677558" fill="none" opacity="0.7" stroke="#FF4500" stroke-linecap="round" stroke-linejoin="round" stroke-width="6.0" /><path d="M 1182.0287226077173,758.5526296677558 C 1182.0287226077173,758.5526296677558 1182.0287226077173,758.5526296677558 1182.0287226077173,758.5526296677558" fill="none" opacity="0.7" stroke="#FF4500" stroke-linecap="round" stroke-linejoin="round" stroke-width="4.8" /><path d="M 1182.0287226077173,758.5526296677558 C 1182.0287226077173,758.5526296677558 1182.0287226077173,758.5526296677558 1182.0287226077173,758.5526296677558" fill="none" opacity="0.7" stroke="#FF4500" stroke-linecap="round" stroke-linejoin="round" stroke-width="3.5999999999999996" /><path d="M 1182.0287226077173,758.5526296677558 C 1184.6492970500487,758.816261888776 1187.4196186033703,759.0949588081402 1189.5160781572354,759.3058645849563" fill="none" opacity="0.7" stroke="#FF4500" stroke-linecap="round" stroke-linejoin="round" stroke-width="4.8" /><path d="M 1176.6988231515472,728.9351927252368 C 1186.8165956259663,729.4428401917212 1169.319861878213,700.0 1177.4242617022826,700.0" fill="none" opacity="0.7" stroke="#FF6347" stroke-linecap="round" stroke-linejoin="round" stroke-width="3.5999999999999996" /><path d="M 1069.1742768612419,449.6409739867463 C 1136.951850073166,413.4737584087749 1113.3741009143057,648.3540889920785 1174.5243302876297,642.2023191643757" fill="none" opacity="0.7" stroke="#C0C0C0" stroke-linecap="round" stroke-linejoin="round" stroke-width="2.4" /><path d="M 1174.5243302876297,642.2023191643757 C 1174.5243302876297,642.2023191643757 1174.5243302876297,642.2023191643757 1174.5243302876297,642.2023191643757" fill="none" opacity="0.7" stroke="#C0C0C0" stroke-linecap="round" stroke-linejoin="round" stroke-width="3.5999999999999996" /><path d="M 1174.5243302876297,642.2023191643757 C 1177.1508675996604,641.9380870731297 1179.9274927580927,641.6587560052411 1182.0287226077173,641.4473703322443" fill="none" opacity="0.7" stroke="#C0C0C0" stroke-linecap="round" stroke-linejoin="round" stroke-width="3.5999999999999996" /><path d="M 1182.0287226077173,641.4473703322443 C 1184.6492970500487,641.1837381112241 1187.4196186033703,640.9050411918599 1189.5160781572354,640.6941354150438" fill="none" opacity="0.7" stroke="#C0C0C0" stroke-linecap="round" stroke-linejoin="round" stroke-width="3.5999999999999996" /><path d="M 1069.1742768612419,449.6409739867463 C 1120.5341993904683,422.23448387276215 1120.2150819775263,594.2616297789945 1165.8536640272612,584.9851796099756" fill="none" opacity="0.7" stroke="#CD7F32" stroke-linecap="round" stroke-linejoin="round" stroke-width="3.5999999999999996" /><path d="M 1165.8536640272612,584.9851796099756 C 1168.4405618893113,584.4593694723271 1171.1752824863358,583.9035130410988 1173.244800775976,583.4828649309801" fill="none" opacity="0.7" stroke="#CD7F32" stroke-linecap="round" stroke-linejoin="round" stroke-width="3.5999999999999996" /><path d="M 1173.244800775976,583.4828649309801 C 1173.244800775976,583.4828649309801 1173.244800775976,583.4828649309801 1173.244800775976,583.4828649309801" fill="none" opacity="0.7" stroke="#CD7F32" stroke-linecap="round" stroke-linejoin="round" stroke-width="3.5999999999999996" /><path d="M 1069.1742768612419,449.6409739867463 C 1101.0219541633276,432.6465353242604 1094.9332613523436,546.4702584951783 1122.5153038219778,537.9142284579825" fill="none" opacity="0.7" stroke="#9ACD32" stroke-linecap="round" stroke-linejoin="round" stroke-width="4.8" /><path d="M 1069.1742768612419,449.6409739867463 C 1084.7456756503952,441.33182229881317 1090.667722712124,491.9389125140562 1103.6670479421737,486.42672245395227" fill="none" opacity="0.7" stroke="#9ACD32" stroke-linecap="round" stroke-linejoin="round" stroke-width="3.5999999999999996" /><path d="M 1122.5153038219778,537.9142284579825 C 1130.1326215438623,535.551314279199 1138.1852145641406,533.0533764330564 1144.2790687416482,531.1630450900295" fill="none" opacity="0.7" stroke="#9ACD32" stroke-linecap="round" stroke-linejoin="round" stroke-width="3.5999999999999996" /><path d="M 1069.1742768612419,449.6409739867463 C 1083.1624690432125,442.1766470978275 1068.1330738889208,412.0505359669233 1078.9369722866359,405.405039362195" fill="none" opacity="0.7" stroke="#DA70D6" stroke-linecap="round" stroke-linejoin="round" stroke-width="4.8" /><path d="M 1078.9369722866359,405.405039362195 C 1087.339582315736,400.23657938935315 1086.1768171211302,433.5677892340461 1093.097656485744,429.7750651317558" fill="none" opacity="0.7" stroke="#DA70D6" stroke-linecap="round" stroke-linejoin="round" stroke-width="4.8" /><path d="M 1078.9369722866359,405.405039362195 C 1087.6924430375798,400.01953414858605 1063.040351674758,382.1407917869709 1069.820030841688,377.4868054893525" fill="none" opacity="0.7" stroke="#DA70D6" stroke-linecap="round" stroke-linejoin="round" stroke-width="3.5999999999999996" /><path d="M 1021.7159567323059,1094.4292456699707 C 1029.1146645634267,1101.3492274780433 1034.7623630613211,1067.5687592741847 1040.9513057886697,1072.8011855207724" fill="none" opacity="0.7" stroke="#DA70D6" stroke-linecap="round" stroke-linejoin="round" stroke-width="4.8" /><path d="M 1069.1742768612419,449.6409739867463 C 1121.7537298011553,421.58372260798075 952.472285461301,335.54633708015115 985.6174190946838,301.27452094333177" fill="none" opacity="0.7" stroke="#BA55D3" stroke-linecap="round" stroke-linejoin="round" stroke-width="4.8" /><path d="M 985.6174190946838,301.27452094333177 C 999.1439377324238,287.28820352939374 1011.7046348454198,351.9253397373361 1023.5914797052236,341.8756362946613" fill="none" opacity="0.7" stroke="#BA55D3" stroke-linecap="round" stroke-linejoin="round" stroke-width="2.4" /><path d="M 985.6174190946838,301.27452094333177 C 987.465536146533,299.3635819650528 989.4192598870593,297.3434464737293 990.8977535285387,295.8146952911061" fill="none" opacity="0.7" stroke="#BA55D3" stroke-linecap="round" stroke-linejoin="round" stroke-width="3.5999999999999996" /><path d="M 985.6174190946838,301.27452094333177 C 999.361059145484,287.0637016393102 938.6756449798347,271.12951091455835 948.4773851096962,258.717407636118" fill="none" opacity="0.7" stroke="#BA55D3" stroke-linecap="round" stroke-linejoin="round" stroke-width="2.4" /><path d="M 839.316744736658,849.6034911529325 C 1073.2037416127214,995.812697309556 506.37974835656445,379.3575608130027 444.53401324256254,167.54049119228716" fill="none" opacity="0.7" stroke="#FF1493" stroke-linecap="round" stroke-linejoin="round" stroke-width="4.8" /><path d="M 444.53401324256254,167.54049119228716 C 436.11457376714833,138.70453355925304 527.247635437228,159.03760404765313 524.0444872059278,135.22005870451017" fill="none" opacity="0.7" stroke="#FF1493" stroke-linecap="round" stroke-linejoin="round" stroke-width="6.0" /><path d="M 444.53401324256254,167.54049119228716 C 441.3942155929445,156.78691641274614 469.9714972019154,154.37722955807013 467.89391099683746,145.65930758978573" fill="none" opacity="0.7" stroke="#FF1493" stroke-linecap="round" stroke-linejoin="round" stroke-width="6.0" /><path d="M 467.89391099683746,145.65930758978573 C 467.89391099683746,145.65930758978573 467.89391099683746,145.65930758978573 467.89391099683746,145.65930758978573" fill="none" opacity="0.7" stroke="#FF1493" stroke-linecap="round" stroke-linejoin="round" stroke-width="3.5999999999999996" /><path d="M 467.89391099683746,145.65930758978573 C 467.2805394573655,143.0854912997018 466.632118115638,140.36459979304163 466.1414208840604,138.3055467609745" fill="none" opacity="0.7" stroke="#FF1493" stroke-linecap="round" stroke-linejoin="round" stroke-width="4.8" /><path d="M 444.53401324256254,167.54049119228716 C 441.3942155929445,156.7869164127461 416.01003581349056,170.13274092157252 413.0702572015638,161.66655939756276" fill="none" opacity="0.7" stroke="#FF69B4" stroke-linecap="round" stroke-linejoin="round" stroke-width="6.0" /><path d="M 466.1414208840604,138.3055467609745 C 465.5294632452822,135.73766345017654 464.8825365985739,133.02304395019013 464.39297048755134,130.96873730155176" fill="none" opacity="0.7" stroke="#FF1493" stroke-linecap="round" stroke-linejoin="round" stroke-width="4.8" /><path d="M 464.39297048755134,130.96873730155176 C 464.39297048755134,130.96873730155176 464.39297048755134,130.96873730155176 464.39297048755134,130.96873730155176" fill="none" opacity="0.7" stroke="#FF1493" stroke-linecap="round" stroke-linejoin="round" stroke-width="3.5999999999999996" /><path d="M 444.53401324256254,167.54049119228716 C 435.62831362029067,137.03912851247216 364.4673813220681,192.44035570195595 353.76725152856386,169.38217334734873" fill="none" opacity="0.7" stroke="#FF1493" stroke-linecap="round" stroke-linejoin="round" stroke-width="3.5999999999999996" /><path d="M 1069.1742768612419,449.6409739867463 C 1157.042359898669,402.75313556117976 867.8293281971323,280.45219385298645 910.7018055103874,213.293552482596" fill="none" opacity="0.7" stroke="#DC143C" stroke-linecap="round" stroke-linejoin="round" stroke-width="4.8" /><path d="M 910.7018055103874,213.293552482596 C 912.1222325350876,211.0684898054934 913.6238268183421,208.7162806896992 914.7601684381023,206.93623054801714" fill="none" opacity="0.7" stroke="#DC143C" stroke-linecap="round" stroke-linejoin="round" stroke-width="4.8" /><path d="M 914.7601684381023,206.93623054801714 C 914.7601684381023,206.93623054801714 914.7601684381023,206.93623054801714 914.7601684381023,206.93623054801714" fill="none" opacity="0.7" stroke="#DC143C" stroke-linecap="round" stroke-linejoin="round" stroke-width="4.8" /><path d="M 914.7601684381023,206.93623054801714 C 916.1773707527528,204.71621929689502 917.675556056812,202.3693502599945 918.8093179085324,200.5933412590968" fill="none" opacity="0.7" stroke="#DC143C" stroke-linecap="round" stroke-linejoin="round" stroke-width="4.8" /><path d="M 1069.1742768612419,449.6409739867463 C 1169.7475319800458,395.9734490683394 805.6067613967521,293.1179822623416 846.7375911571248,211.7228234142778" fill="none" opacity="0.7" stroke="#FFD700" stroke-linecap="round" stroke-linejoin="round" stroke-width="3.5999999999999996" /><path d="M 846.7375911571248,211.7228234142778 C 849.1384488654965,206.9716867199051 851.6764984429177,201.94905650013965 853.5971846096149,198.14814714464148" fill="none" opacity="0.7" stroke="#FFD700" stroke-linecap="round" stroke-linejoin="round" stroke-width="3.5999999999999996" /><path d="M 853.5971846096149,198.14814714464148 C 855.9866347842653,193.41958519589653 858.5126249688959,188.42081970722336 860.4241851086163,184.6379701482274" fill="none" opacity="0.7" stroke="#FFD700" stroke-linecap="round" stroke-linejoin="round" stroke-width="3.5999999999999996" /><path d="M 860.4241851086163,184.6379701482274 C 860.4241851086163,184.6379701482274 860.4241851086163,184.6379701482274 860.4241851086163,184.6379701482274" fill="none" opacity="0.7" stroke="#FFD700" stroke-linecap="round" stroke-linejoin="round" stroke-width="3.5999999999999996" /><path d="M 1069.1742768612419,449.6409739867463 C 1190.4999567996545,384.899617612769 770.7013172799047,256.7843224223062 810.2415187029019,154.12057357427557" fill="none" opacity="0.7" stroke="#FF8C00" stroke-linecap="round" stroke-linejoin="round" stroke-width="3.5999999999999996" /><path d="M 810.2415187029019,154.12057357427557 C 811.1881275715523,151.6627607242904 812.1888283755542,149.06450142573468 812.9461154704745,147.09825114574653" fill="none" opacity="0.7" stroke="#FF8C00" stroke-linecap="round" stroke-linejoin="round" stroke-width="3.5999999999999996" /><path d="M 1069.1742768612419,449.6409739867463 C 1205.2585186668566,377.02420892849915 719.9517711293305,262.10522617732823 752.5528348706653,143.09209865961702" fill="none" opacity="0.7" stroke="#B22222" stroke-linecap="round" stroke-linejoin="round" stroke-width="3.5999999999999996" /><path d="M 752.5528348706653,143.09209865961702 C 753.2502565318911,140.54609789842573 753.9875308594727,137.85461137945205 754.5454681884534,135.81781077049902" fill="none" opacity="0.7" stroke="#B22222" stroke-linecap="round" stroke-linejoin="round" stroke-width="3.5999999999999996" /><path d="M 1069.1742768612419,449.6409739867463 C 1220.764031755816,368.7502149219272 673.1793828799051,266.16189100188785 696.042604769581,130.61911160322552" fill="none" opacity="0.7" stroke="#8B0000" stroke-linecap="round" stroke-linejoin="round" stroke-width="3.5999999999999996" /><path d="M 696.042604769581,130.61911160322552 C 696.481680143196,128.0160884251077 696.9458455381604,125.26432106538314 697.2971058370523,123.18190252288889" fill="none" opacity="0.7" stroke="#8B0000" stroke-linecap="round" stroke-linejoin="round" stroke-width="3.5999999999999996" /><path d="M 1069.1742768612419,449.6409739867463 C 1235.9056340190532,360.6704096515601 628.4694741058379,274.7151037190632 638.5676872274278,123.86519676003479" fill="none" opacity="0.7" stroke="#800000" stroke-linecap="round" stroke-linejoin="round" stroke-width="4.8" /><path d="M 638.5676872274278,123.86519676003479 C 638.7440060779991,121.23129689244928 638.9304002914603,118.44688846100175 639.0714553719173,116.33976856693334" fill="none" opacity="0.7" stroke="#800000" stroke-linecap="round" stroke-linejoin="round" stroke-width="4.8" /><path d="M 639.0714553719173,116.33976856693334 C 639.247373936406,113.71184828381442 639.433344990294,110.9337611273744 639.574079841885,108.83142490087926" fill="none" opacity="0.7" stroke="#800000" stroke-linecap="round" stroke-linejoin="round" stroke-width="6.0" /><path d="M 1069.1742768612419,449.6409739867463 C 1250.6410316826903,352.80736176311586 586.2037889994238,287.35549353209234 580.7053815715446,122.89819294848292" fill="none" opacity="0.7" stroke="#CD5C5C" stroke-linecap="round" stroke-linejoin="round" stroke-width="3.5999999999999996" /></g><g id="nodes"><circle cx="534.7277879198872" cy="772.1681209401834" fill="#8B7355" opacity="0.4" r="5.0" stroke="white" stroke-width="0.8" /><circle cx="490.45651067506367" cy="848.6736247388942" fill="#8B7355" opacity="0.4" r="5.0" stroke="white" stroke-width="0.8" /><circle cx="581.0484382192178" cy="723.1911585590939" fill="#8B7355" opacity="0.4" r="7.5" stroke="white" stroke-width="0.8" /><circle cx="340.7480092837688" cy="1137.703174496205" fill="#9370DB" opacity="0.95" r="7.5" stroke="white" stroke-width="0.8" /><circle cx="385.86222269708026" cy="1161.454955533202" fill="#9370DB" opacity="0.95" r="7.5" stroke="white" stroke-width="0.8" /><circle cx="420.5449061682517" cy="1216.807419995479" fill="#9370DB" opacity="0.95" r="7.5" stroke="white" stroke-width="0.8" /><circle cx="430.5977954336204" cy="1187.8564013656792" fill="#9370DB" opacity="0.08" r="22.5" /><circle cx="430.5977954336204" cy="1187.8564013656792" fill="#9370DB" opacity="0.95" r="12.5" stroke="white" stroke-width="0.8" /><circle cx="433.0977954336204" cy="1185.3564013656792" fill="white" opacity="0.5" r="3.125" /><circle cx="392.38048920999086" cy="1147.4084550896405" fill="#9370DB" opacity="0.08" r="22.5" /><circle cx="392.38048920999086" cy="1147.4084550896405" fill="#9370DB" opacity="0.95" r="12.5" stroke="white" stroke-width="0.8" /><circle cx="394.88048920999086" cy="1144.9084550896405" fill="white" opacity="0.5" r="3.125" /><circle cx="439.12651865485884" cy="1046.673371301409" fill="#9370DB" opacity="0.95" r="7.5" stroke="white" stroke-width="0.8" /><circle cx="470.4638731927007" cy="979.143121726007" fill="#9370DB" opacity="0.95" r="5.0" stroke="white" stroke-width="0.8" /><circle cx="470.4638731927007" cy="979.143121726007" fill="#9370DB" opacity="0.08" r="18.0" /><circle cx="470.4638731927007" cy="979.143121726007" fill="#9370DB" opacity="0.95" r="10.0" stroke="white" stroke-width="0.8" /><circle cx="472.4638731927007" cy="977.143121726007" fill="white" opacity="0.5" r="2.5" /><circle cx="482.06853854041356" cy="1194.861429141927" fill="#4169E1" opacity="0.4" r="5.0" stroke="white" stroke-width="0.8" /><circle cx="532.1943091547973" cy="1204.180574738247" fill="#4169E1" opacity="0.4" r="7.5" stroke="white" stroke-width="0.8" /><circle cx="531.6309031974525" cy="1067.7433331216926" fill="#4169E1" opacity="0.08" r="18.0" /><circle cx="531.6309031974525" cy="1067.7433331216926" fill="#4169E1" opacity="0.4" r="10.0" stroke="white" stroke-width="0.8" /><circle cx="533.6309031974525" cy="1065.7433331216926" fill="white" opacity="0.5" r="2.5" /><circle cx="583.001145204134" cy="1208.4355441843277" fill="#87CEEB" opacity="0.95" r="5.0" stroke="white" stroke-width="0.8" /><circle cx="583.2595114845276" cy="1200.707811819513" fill="#87CEEB" opacity="0.95" r="7.5" stroke="white" stroke-width="0.8" /><circle cx="565.7273861516546" cy="1014.289003172322" fill="#4169E1" opacity="0.4" r="7.5" stroke="white" stroke-width="0.8" /><circle cx="636.540762291444" cy="1245.8560366577485" fill="#FFA500" opacity="0.4" r="7.5" stroke="white" stroke-width="0.8" /><circle cx="636.0309577315105" cy="1238.2404348173754" fill="#FFA500" opacity="0.4" r="7.5" stroke="white" stroke-width="0.8" /><circle cx="635.5198770021126" cy="1230.6057692037743" fill="#FFA500" opacity="0.4" r="5.0" stroke="white" stroke-width="0.8" /><circle cx="689.725552182345" cy="1231.9307481928645" fill="#FFA500" opacity="0.4" r="5.0" stroke="white" stroke-width="0.8" /><circle cx="659.3714564827217" cy="1205.2432026356264" fill="#FFA500" opacity="0.08" r="18.0" /><circle cx="659.3714564827217" cy="1205.2432026356264" fill="#FFA500" opacity="0.4" r="10.0" stroke="white" stroke-width="0.8" /><circle cx="661.3714564827217" cy="1203.2432026356264" fill="white" opacity="0.5" r="2.5" /><circle cx="744.5354201050094" cy="1227.6396046541745" fill="#8B008B" opacity="0.95" r="7.5" stroke="white" stroke-width="0.8" /><circle cx="796.6239876551066" cy="1210.522328153382" fill="#8B008B" opacity="0.95" r="5.0" stroke="white" stroke-width="0.8" /><circle cx="846.7375911571248" cy="1188.2771765857221" fill="#8B008B" opacity="0.95" r="5.0" stroke="white" stroke-width="0.8" /><circle cx="898.4697761759329" cy="1167.5452857934758" fill="#8B008B" opacity="0.95" r="5.0" stroke="white" stroke-width="0.8" /><circle cx="962.5329436875138" cy="1159.0813752731062" fill="#8B008B" opacity="0.95" r="5.0" stroke="white" stroke-width="0.8" /><circle cx="843.2951903643979" cy="1181.4648958470375" fill="#8B008B" opacity="0.08" r="22.5" /><circle cx="843.2951903643979" cy="1181.4648958470375" fill="#8B008B" opacity="0.95" r="12.5" stroke="white" stroke-width="0.8" /><circle cx="845.7951903643979" cy="1178.9648958470375" fill="white" opacity="0.5" r="3.125" /><circle cx="1006.6643039775099" cy="1120.487797982139" fill="#00BFFF" opacity="0.08" r="22.5" /><circle cx="1006.6643039775099" cy="1120.487797982139" fill="#00BFFF" opacity="0.95" r="12.5" stroke="white" stroke-width="0.8" /><circle cx="1009.1643039775099" cy="1117.987797982139" fill="white" opacity="0.5" r="3.125" /><circle cx="1006.6643039775099" cy="1120.487797982139" fill="#00BFFF" opacity="0.08" r="18.0" /><circle cx="1006.6643039775099" cy="1120.487797982139" fill="#00BFFF" opacity="0.95" r="10.0" stroke="white" stroke-width="0.8" /><circle cx="1008.6643039775099" cy="1118.487797982139" fill="white" opacity="0.5" r="2.5" /><circle cx="1001.4209742910477" cy="1115.0662349573283" fill="#00BFFF" opacity="0.95" r="7.5" stroke="white" stroke-width="0.8" /><circle cx="1040.9513057886697" cy="1072.8011855207724" fill="#DA70D6" opacity="0.08" r="18.0" /><circle cx="1040.9513057886697" cy="1072.8011855207724" fill="#DA70D6" opacity="0.95" r="10.0" stroke="white" stroke-width="0.8" /><circle cx="1042.9513057886697" cy="1070.8011855207724" fill="white" opacity="0.5" r="2.5" /><circle cx="1021.7159567323059" cy="1094.4292456699707" fill="#00BFFF" opacity="0.08" r="22.5" /><circle cx="1021.7159567323059" cy="1094.4292456699707" fill="#00BFFF" opacity="0.95" r="12.5" stroke="white" stroke-width="0.8" /><circle cx="1024.215956732306" cy="1091.9292456699707" fill="white" opacity="0.5" r="3.125" /><circle cx="1016.194808596305" cy="1089.2653379265003" fill="#00BFFF" opacity="0.08" r="22.5" /><circle cx="1016.194808596305" cy="1089.2653379265003" fill="#00BFFF" opacity="0.95" r="12.5" stroke="white" stroke-width="0.8" /><circle cx="1018.694808596305" cy="1086.7653379265003" fill="white" opacity="0.5" r="3.125" /><circle cx="1016.194808596305" cy="1089.2653379265003" fill="#00BFFF" opacity="0.08" r="18.0" /><circle cx="1016.194808596305" cy="1089.2653379265003" fill="#00BFFF" opacity="0.95" r="10.0" stroke="white" stroke-width="0.8" /><circle cx="1018.194808596305" cy="1087.2653379265003" fill="white" opacity="0.5" r="2.5" /><circle cx="1005.1134077220632" cy="1078.9009480616694" fill="#00BFFF" opacity="0.08" r="22.5" /><circle cx="1005.1134077220632" cy="1078.9009480616694" fill="#00BFFF" opacity="0.95" r="12.5" stroke="white" stroke-width="0.8" /><circle cx="1007.6134077220632" cy="1076.4009480616694" fill="white" opacity="0.5" r="3.125" /><circle cx="999.5526731637982" cy="1073.7000152959697" fill="#00BFFF" opacity="0.08" r="18.0" /><circle cx="999.5526731637982" cy="1073.7000152959697" fill="#00BFFF" opacity="0.95" r="10.0" stroke="white" stroke-width="0.8" /><circle cx="1001.5526731637982" cy="1071.7000152959697" fill="white" opacity="0.5" r="2.5" /><circle cx="993.9782471819894" cy="1068.4862769966537" fill="#00BFFF" opacity="0.08" r="18.0" /><circle cx="993.9782471819894" cy="1068.4862769966537" fill="#00BFFF" opacity="0.95" r="10.0" stroke="white" stroke-width="0.8" /><circle cx="995.9782471819894" cy="1066.4862769966537" fill="white" opacity="0.5" r="2.5" /><circle cx="1082.2707209685325" cy="1031.0601094633307" fill="#7B68EE" opacity="0.95" r="7.5" stroke="white" stroke-width="0.8" /><circle cx="1119.585537061126" cy="984.7406919584168" fill="#7B68EE" opacity="0.08" r="22.5" /><circle cx="1119.585537061126" cy="984.7406919584168" fill="#7B68EE" opacity="0.95" r="12.5" stroke="white" stroke-width="0.8" /><circle cx="1122.085537061126" cy="982.2406919584168" fill="white" opacity="0.5" r="3.125" /><circle cx="1112.9863588563098" cy="981.1242430113878" fill="#7B68EE" opacity="0.08" r="22.5" /><circle cx="1112.9863588563098" cy="981.1242430113878" fill="#7B68EE" opacity="0.95" r="12.5" stroke="white" stroke-width="0.8" /><circle cx="1115.4863588563098" cy="978.6242430113878" fill="white" opacity="0.5" r="3.125" /><circle cx="1112.9863588563098" cy="981.1242430113878" fill="#7B68EE" opacity="0.08" r="18.0" /><circle cx="1112.9863588563098" cy="981.1242430113878" fill="#7B68EE" opacity="0.95" r="10.0" stroke="white" stroke-width="0.8" /><circle cx="1114.9863588563098" cy="979.1242430113878" fill="white" opacity="0.5" r="2.5" /><circle cx="1138.5493720415843" cy="928.3646606964301" fill="#7B68EE" opacity="0.08" r="18.0" /><circle cx="1138.5493720415843" cy="928.3646606964301" fill="#7B68EE" opacity="0.95" r="10.0" stroke="white" stroke-width="0.8" /><circle cx="1140.5493720415843" cy="926.3646606964301" fill="white" opacity="0.5" r="2.5" /><circle cx="1106.3721648446071" cy="977.499565176258" fill="#7B68EE" opacity="0.95" r="7.5" stroke="white" stroke-width="0.8" /><circle cx="1106.3721648446071" cy="977.499565176258" fill="#7B68EE" opacity="0.08" r="18.0" /><circle cx="1106.3721648446071" cy="977.499565176258" fill="#7B68EE" opacity="0.95" r="10.0" stroke="white" stroke-width="0.8" /><circle cx="1108.3721648446071" cy="975.499565176258" fill="white" opacity="0.5" r="2.5" /><circle cx="1165.8902840376568" cy="875.5408169396417" fill="#008B8B" opacity="0.08" r="18.0" /><circle cx="1165.8902840376568" cy="875.5408169396417" fill="#008B8B" opacity="0.95" r="10.0" stroke="white" stroke-width="0.8" /><circle cx="1167.8902840376568" cy="873.5408169396417" fill="white" opacity="0.5" r="2.5" /><circle cx="1158.7029961661333" cy="873.3112992749353" fill="#008B8B" opacity="0.08" r="18.0" /><circle cx="1158.7029961661333" cy="873.3112992749353" fill="#008B8B" opacity="0.95" r="10.0" stroke="white" stroke-width="0.8" /><circle cx="1160.7029961661333" cy="871.3112992749353" fill="white" opacity="0.5" r="2.5" /><circle cx="1158.7029961661333" cy="873.3112992749353" fill="#008B8B" opacity="0.08" r="18.0" /><circle cx="1158.7029961661333" cy="873.3112992749353" fill="#008B8B" opacity="0.95" r="10.0" stroke="white" stroke-width="0.8" /><circle cx="1160.7029961661333" cy="871.3112992749353" fill="white" opacity="0.5" r="2.5" /><circle cx="1151.4993542997079" cy="871.0767085533021" fill="#008B8B" opacity="0.08" r="18.0" /><circle cx="1151.4993542997079" cy="871.0767085533021" fill="#008B8B" opacity="0.95" r="10.0" stroke="white" stroke-width="0.8" /><circle cx="1153.4993542997079" cy="869.0767085533021" fill="white" opacity="0.5" r="2.5" /><circle cx="1151.4993542997079" cy="871.0767085533021" fill="#008B8B" opacity="0.08" r="18.0" /><circle cx="1151.4993542997079" cy="871.0767085533021" fill="#008B8B" opacity="0.95" r="10.0" stroke="white" stroke-width="0.8" /><circle cx="1153.4993542997079" cy="869.0767085533021" fill="white" opacity="0.5" r="2.5" /><circle cx="1173.244800775976" cy="816.5171350690199" fill="#20B2AA" opacity="0.95" r="7.5" stroke="white" stroke-width="0.8" /><circle cx="1173.244800775976" cy="816.5171350690199" fill="#20B2AA" opacity="0.95" r="7.5" stroke="white" stroke-width="0.8" /><circle cx="1152.0558268525742" cy="841.350578533192" fill="#008B8B" opacity="0.08" r="18.0" /><circle cx="1152.0558268525742" cy="841.350578533192" fill="#008B8B" opacity="0.95" r="10.0" stroke="white" stroke-width="0.8" /><circle cx="1154.0558268525742" cy="839.350578533192" fill="white" opacity="0.5" r="2.5" /><circle cx="1189.5160781572354" cy="759.3058645849563" fill="#FF4500" opacity="0.08" r="18.0" /><circle cx="1189.5160781572354" cy="759.3058645849563" fill="#FF4500" opacity="0.95" r="10.0" stroke="white" stroke-width="0.8" /><circle cx="1191.5160781572354" cy="757.3058645849563" fill="white" opacity="0.5" r="2.5" /><circle cx="1182.0287226077173" cy="758.5526296677558" fill="#FF4500" opacity="0.95" r="7.5" stroke="white" stroke-width="0.8" /><circle cx="1182.0287226077173" cy="758.5526296677558" fill="#FF4500" opacity="0.08" r="18.0" /><circle cx="1182.0287226077173" cy="758.5526296677558" fill="#FF4500" opacity="0.95" r="10.0" stroke="white" stroke-width="0.8" /><circle cx="1184.0287226077173" cy="756.5526296677558" fill="white" opacity="0.5" r="2.5" /><circle cx="1182.0287226077173" cy="758.5526296677558" fill="#FF4500" opacity="0.08" r="22.5" /><circle cx="1182.0287226077173" cy="758.5526296677558" fill="#FF4500" opacity="0.95" r="12.5" stroke="white" stroke-width="0.8" /><circle cx="1184.5287226077173" cy="756.0526296677558" fill="white" opacity="0.5" r="3.125" /><circle cx="1174.5243302876297" cy="757.7976808356243" fill="#FF4500" opacity="0.08" r="18.0" /><circle cx="1174.5243302876297" cy="757.7976808356243" fill="#FF4500" opacity="0.95" r="10.0" stroke="white" stroke-width="0.8" /><circle cx="1176.5243302876297" cy="755.7976808356243" fill="white" opacity="0.5" r="2.5" /><circle cx="1177.4242617022826" cy="700.0" fill="#FF6347" opacity="0.95" r="7.5" stroke="white" stroke-width="0.8" /><circle cx="1176.6988231515472" cy="728.9351927252368" fill="#FF4500" opacity="0.08" r="22.5" /><circle cx="1176.6988231515472" cy="728.9351927252368" fill="#FF4500" opacity="0.95" r="12.5" stroke="white" stroke-width="0.8" /><circle cx="1179.1988231515472" cy="726.4351927252368" fill="white" opacity="0.5" r="3.125" /><circle cx="1189.5160781572354" cy="640.6941354150438" fill="#C0C0C0" opacity="0.95" r="7.5" stroke="white" stroke-width="0.8" /><circle cx="1182.0287226077173" cy="641.4473703322443" fill="#C0C0C0" opacity="0.95" r="7.5" stroke="white" stroke-width="0.8" /><circle cx="1174.5243302876297" cy="642.2023191643757" fill="#C0C0C0" opacity="0.95" r="7.5" stroke="white" stroke-width="0.8" /><circle cx="1174.5243302876297" cy="642.2023191643757" fill="#C0C0C0" opacity="0.95" r="5.0" stroke="white" stroke-width="0.8" /><circle cx="1173.244800775976" cy="583.4828649309801" fill="#CD7F32" opacity="0.95" r="7.5" stroke="white" stroke-width="0.8" /><circle cx="1173.244800775976" cy="583.4828649309801" fill="#CD7F32" opacity="0.95" r="7.5" stroke="white" stroke-width="0.8" /><circle cx="1165.8536640272612" cy="584.9851796099756" fill="#CD7F32" opacity="0.95" r="7.5" stroke="white" stroke-width="0.8" /><circle cx="1144.2790687416482" cy="531.1630450900295" fill="#9ACD32" opacity="0.95" r="7.5" stroke="white" stroke-width="0.8" /><circle cx="1122.5153038219778" cy="537.9142284579825" fill="#9ACD32" opacity="0.08" r="18.0" /><circle cx="1122.5153038219778" cy="537.9142284579825" fill="#9ACD32" opacity="0.95" r="10.0" stroke="white" stroke-width="0.8" /><circle cx="1124.5153038219778" cy="535.9142284579825" fill="white" opacity="0.5" r="2.5" /><circle cx="1103.6670479421737" cy="486.42672245395227" fill="#9ACD32" opacity="0.95" r="7.5" stroke="white" stroke-width="0.8" /><circle cx="1093.097656485744" cy="429.7750651317558" fill="#DA70D6" opacity="0.08" r="18.0" /><circle cx="1093.097656485744" cy="429.7750651317558" fill="#DA70D6" opacity="0.95" r="10.0" stroke="white" stroke-width="0.8" /><circle cx="1095.097656485744" cy="427.7750651317558" fill="white" opacity="0.5" r="2.5" /><circle cx="1069.820030841688" cy="377.4868054893525" fill="#DA70D6" opacity="0.95" r="7.5" stroke="white" stroke-width="0.8" /><circle cx="1078.9369722866359" cy="405.405039362195" fill="#DA70D6" opacity="0.08" r="18.0" /><circle cx="1078.9369722866359" cy="405.405039362195" fill="#DA70D6" opacity="0.95" r="10.0" stroke="white" stroke-width="0.8" /><circle cx="1080.9369722866359" cy="403.405039362195" fill="white" opacity="0.5" r="2.5" /><circle cx="1023.5914797052236" cy="341.8756362946613" fill="#BA55D3" opacity="0.95" r="5.0" stroke="white" stroke-width="0.8" /><circle cx="990.8977535285387" cy="295.8146952911061" fill="#BA55D3" opacity="0.95" r="7.5" stroke="white" stroke-width="0.8" /><circle cx="948.4773851096962" cy="258.717407636118" fill="#BA55D3" opacity="0.95" r="5.0" stroke="white" stroke-width="0.8" /><circle cx="985.6174190946838" cy="301.27452094333177" fill="#BA55D3" opacity="0.08" r="18.0" /><circle cx="985.6174190946838" cy="301.27452094333177" fill="#BA55D3" opacity="0.95" r="10.0" stroke="white" stroke-width="0.8" /><circle cx="987.6174190946838" cy="299.27452094333177" fill="white" opacity="0.5" r="2.5" /><circle cx="918.8093179085324" cy="200.5933412590968" fill="#DC143C" opacity="0.08" r="18.0" /><circle cx="918.8093179085324" cy="200.5933412590968" fill="#DC143C" opacity="0.95" r="10.0" stroke="white" stroke-width="0.8" /><circle cx="920.8093179085324" cy="198.5933412590968" fill="white" opacity="0.5" r="2.5" /><circle cx="914.7601684381023" cy="206.93623054801714" fill="#DC143C" opacity="0.08" r="18.0" /><circle cx="914.7601684381023" cy="206.93623054801714" fill="#DC143C" opacity="0.95" r="10.0" stroke="white" stroke-width="0.8" /><circle cx="916.7601684381023" cy="204.93623054801714" fill="white" opacity="0.5" r="2.5" /><circle cx="914.7601684381023" cy="206.93623054801714" fill="#DC143C" opacity="0.08" r="18.0" /><circle cx="914.7601684381023" cy="206.93623054801714" fill="#DC143C" opacity="0.95" r="10.0" stroke="white" stroke-width="0.8" /><circle cx="916.7601684381023" cy="204.93623054801714" fill="white" opacity="0.5" r="2.5" /><circle cx="910.7018055103874" cy="213.293552482596" fill="#DC143C" opacity="0.08" r="18.0" /><circle cx="910.7018055103874" cy="213.293552482596" fill="#DC143C" opacity="0.95" r="10.0" stroke="white" stroke-width="0.8" /><circle cx="912.7018055103874" cy="211.293552482596" fill="white" opacity="0.5" r="2.5" /><circle cx="860.4241851086163" cy="184.6379701482274" fill="#FFD700" opacity="0.95" r="7.5" stroke="white" stroke-width="0.8" /><circle cx="860.4241851086163" cy="184.6379701482274" fill="#FFD700" opacity="0.95" r="7.5" stroke="white" stroke-width="0.8" /><circle cx="853.5971846096149" cy="198.14814714464148" fill="#FFD700" opacity="0.95" r="7.5" stroke="white" stroke-width="0.8" /><circle cx="846.7375911571248" cy="211.7228234142778" fill="#FFD700" opacity="0.95" r="7.5" stroke="white" stroke-width="0.8" /><circle cx="812.9461154704745" cy="147.09825114574653" fill="#FF8C00" opacity="0.95" r="7.5" stroke="white" stroke-width="0.8" /><circle cx="810.2415187029019" cy="154.12057357427557" fill="#FF8C00" opacity="0.95" r="7.5" stroke="white" stroke-width="0.8" /><circle cx="754.5454681884534" cy="135.81781077049902" fill="#B22222" opacity="0.95" r="7.5" stroke="white" stroke-width="0.8" /><circle cx="752.5528348706653" cy="143.09209865961702" fill="#B22222" opacity="0.95" r="7.5" stroke="white" stroke-width="0.8" /><circle cx="697.2971058370523" cy="123.18190252288889" fill="#8B0000" opacity="0.95" r="7.5" stroke="white" stroke-width="0.8" /><circle cx="696.042604769581" cy="130.61911160322552" fill="#8B0000" opacity="0.95" r="7.5" stroke="white" stroke-width="0.8" /><circle cx="639.574079841885" cy="108.83142490087926" fill="#800000" opacity="0.08" r="22.5" /><circle cx="639.574079841885" cy="108.83142490087926" fill="#800000" opacity="0.95" r="12.5" stroke="white" stroke-width="0.8" /><circle cx="642.074079841885" cy="106.33142490087926" fill="white" opacity="0.5" r="3.125" /><circle cx="639.0714553719173" cy="116.33976856693334" fill="#800000" opacity="0.08" r="18.0" /><circle cx="639.0714553719173" cy="116.33976856693334" fill="#800000" opacity="0.95" r="10.0" stroke="white" stroke-width="0.8" /><circle cx="641.0714553719173" cy="114.33976856693334" fill="white" opacity="0.5" r="2.5" /><circle cx="638.5676872274278" cy="123.86519676003479" fill="#800000" opacity="0.08" r="18.0" /><circle cx="638.5676872274278" cy="123.86519676003479" fill="#800000" opacity="0.95" r="10.0" stroke="white" stroke-width="0.8" /><circle cx="640.5676872274278" cy="121.86519676003479" fill="white" opacity="0.5" r="2.5" /><circle cx="580.7053815715446" cy="122.89819294848292" fill="#CD5C5C" opacity="0.95" r="7.5" stroke="white" stroke-width="0.8" /><circle cx="1069.1742768612419" cy="449.6409739867463" fill="#00CED1" opacity="0.08" r="22.5" /><circle cx="1069.1742768612419" cy="449.6409739867463" fill="#00CED1" opacity="0.95" r="12.5" stroke="white" stroke-width="0.8" /><circle cx="1071.6742768612419" cy="447.1409739867463" fill="white" opacity="0.5" r="3.125" /><circle cx="524.0444872059278" cy="135.22005870451017" fill="#FF1493" opacity="0.08" r="22.5" /><circle cx="524.0444872059278" cy="135.22005870451017" fill="#FF1493" opacity="0.95" r="12.5" stroke="white" stroke-width="0.8" /><circle cx="526.5444872059278" cy="132.72005870451017" fill="white" opacity="0.5" r="3.125" /><circle cx="464.39297048755134" cy="130.96873730155176" fill="#FF1493" opacity="0.95" r="7.5" stroke="white" stroke-width="0.8" /><circle cx="464.39297048755134" cy="130.96873730155176" fill="#FF1493" opacity="0.08" r="18.0" /><circle cx="464.39297048755134" cy="130.96873730155176" fill="#FF1493" opacity="0.95" r="10.0" stroke="white" stroke-width="0.8" /><circle cx="466.39297048755134" cy="128.96873730155176" fill="white" opacity="0.5" r="2.5" /><circle cx="466.1414208840604" cy="138.3055467609745" fill="#FF1493" opacity="0.08" r="18.0" /><circle cx="466.1414208840604" cy="138.3055467609745" fill="#FF1493" opacity="0.95" r="10.0" stroke="white" stroke-width="0.8" /><circle cx="468.1414208840604" cy="136.3055467609745" fill="white" opacity="0.5" r="2.5" /><circle cx="467.89391099683746" cy="145.65930758978573" fill="#FF1493" opacity="0.95" r="7.5" stroke="white" stroke-width="0.8" /><circle cx="467.89391099683746" cy="145.65930758978573" fill="#FF1493" opacity="0.08" r="22.5" /><circle cx="467.89391099683746" cy="145.65930758978573" fill="#FF1493" opacity="0.95" r="12.5" stroke="white" stroke-width="0.8" /><circle cx="470.39391099683746" cy="143.15930758978573" fill="white" opacity="0.5" r="3.125" /><circle cx="413.0702572015638" cy="161.66655939756276" fill="#FF69B4" opacity="0.08" r="22.5" /><circle cx="413.0702572015638" cy="161.66655939756276" fill="#FF69B4" opacity="0.95" r="12.5" stroke="white" stroke-width="0.8" /><circle cx="415.5702572015638" cy="159.16655939756276" fill="white" opacity="0.5" r="3.125" /><circle cx="353.76725152856386" cy="169.38217334734873" fill="#FF1493" opacity="0.95" r="7.5" stroke="white" stroke-width="0.8" /><circle cx="444.53401324256254" cy="167.54049119228716" fill="#FF1493" opacity="0.08" r="18.0" /><circle cx="444.53401324256254" cy="167.54049119228716" fill="#FF1493" opacity="0.95" r="10.0" stroke="white" stroke-width="0.8" /><circle cx="446.53401324256254" cy="165.54049119228716" fill="white" opacity="0.5" r="2.5" /><circle cx="839.316744736658" cy="849.6034911529325" fill="#FF6347" opacity="0.08" r="22.5" /><circle cx="839.316744736658" cy="849.6034911529325" fill="#FF6347" opacity="0.95" r="12.5" stroke="white" stroke-width="0.8" /><circle cx="841.816744736658" cy="847.1034911529325" fill="white" opacity="0.5" r="3.125" /><circle cx="482.82861710686757" cy="502.17592115398327" fill="#DDA0DD" opacity="0.4" r="5.0" stroke="white" stroke-width="0.8" /><circle cx="284.55096929801596" cy="271.869116970344" fill="#228B22" opacity="0.08" r="18.0" /><circle cx="284.55096929801596" cy="271.869116970344" fill="#228B22" opacity="0.95" r="10.0" stroke="white" stroke-width="0.8" /><circle cx="286.55096929801596" cy="269.869116970344" fill="white" opacity="0.5" r="2.5" /><circle cx="289.10138889754717" cy="278.04499634130735" fill="#228B22" opacity="0.08" r="22.5" /><circle cx="289.10138889754717" cy="278.04499634130735" fill="#228B22" opacity="0.95" r="12.5" stroke="white" stroke-width="0.8" /><circle cx="291.60138889754717" cy="275.54499634130735" fill="white" opacity="0.5" r="3.125" /><circle cx="227.92132637343707" cy="288.61178651970084" fill="#228B22" opacity="0.08" r="18.0" /><circle cx="227.92132637343707" cy="288.61178651970084" fill="#228B22" opacity="0.95" r="10.0" stroke="white" stroke-width="0.8" /><circle cx="229.92132637343707" cy="286.61178651970084" fill="white" opacity="0.5" r="2.5" /><circle cx="243.28115581786403" cy="305.5943583315076" fill="#228B22" opacity="0.95" r="7.5" stroke="white" stroke-width="0.8" /><circle cx="282.9864720219051" cy="312.06833095027804" fill="#228B22" opacity="0.95" r="7.5" stroke="white" stroke-width="0.8" /><circle cx="405.27265208229284" cy="461.71078386105404" fill="#228B22" opacity="0.95" r="7.5" stroke="white" stroke-width="0.8" /><circle cx="600.0" cy="700.0" fill="#2F4F4F" opacity="0.08" r="22.5" /><circle cx="600.0" cy="700.0" fill="#2F4F4F" opacity="0.95" r="12.5" stroke="white" stroke-width="0.8" /><circle cx="602.5" cy="697.5" fill="white" opacity="0.5" r="3.125" /></g><g font-family="Georgia, serif" font-size="7" id="labels"><text fill="#333333" font-size="8" font-weight="bold" opacity="0.15" text-anchor="end" x="436.0181683012139" y="1202.526437739798">ResNet</text><text fill="#1A1A1A" font-size="8" font-weight="bold" opacity="0.9" text-anchor="end" x="435.5181683012139" y="1202.026437739798">ResNet</text><text fill="#333333" font-size="8" font-weight="bold" opacity="0.15" text-anchor="end" x="399.1945106464159" y="1161.5148187956556">AlexNet</text><text fill="#1A1A1A" font-size="8" font-weight="bold" opacity="0.9" text-anchor="end" x="398.6945106464159" y="1161.0148187956556">AlexNet</text><text fill="#333333" font-size="8" font-weight="bold" opacity="0.15" text-anchor="end" x="837.0300385761564" y="1195.3526783849356">BERT</text><text fill="#1A1A1A" font-size="8" font-weight="bold" opacity="0.9" text-anchor="end" x="836.5300385761564" y="1194.8526783849356">BERT</text><text fill="#333333" font-size="8" font-weight="bold" opacity="0.15" text-anchor="end" x="996.7364175623903" y="1131.770153240308">o1</text><text fill="#1A1A1A" font-size="8" font-weight="bold" opacity="0.9" text-anchor="end" x="996.2364175623903" y="1131.270153240308">o1</text><text fill="#333333" font-size="8" font-weight="bold" opacity="0.15" text-anchor="start" x="1033.171054691536" y="1105.175504924141">GPT-4</text><text fill="#1A1A1A" font-size="8" font-weight="bold" opacity="0.9" text-anchor="start" x="1032.671054691536" y="1104.675504924141">GPT-4</text><text fill="#333333" font-size="8" font-weight="bold" opacity="0.15" text-anchor="start" x="1133.239785984226" y="992.4494182862171">Claude 4 Sonnet</text><text fill="#1A1A1A" font-size="8" font-weight="bold" opacity="0.9" text-anchor="start" x="1132.739785984226" y="991.9494182862171">Claude 4 Sonnet</text><text fill="#333333" font-size="8" font-weight="bold" opacity="0.15" text-anchor="start" x="1197.4533898340449" y="760.5540650421173">LLaMA 3</text><text fill="#1A1A1A" font-size="8" font-weight="bold" opacity="0.9" text-anchor="start" x="1196.9533898340449" y="760.0540650421173">LLaMA 3</text><text fill="#333333" font-size="8" font-weight="bold" opacity="0.15" text-anchor="start" x="1192.179978120289" y="730.1868547520436">LLaMA</text><text fill="#1A1A1A" font-size="8" font-weight="bold" opacity="0.9" text-anchor="start" x="1191.679978120289" y="729.6868547520436">LLaMA</text><text fill="#333333" font-size="8" font-weight="bold" opacity="0.15" text-anchor="end" x="639.0721903357082" y="94.36492172153196">DeepSeek-R1</text><text fill="#1A1A1A" font-size="8" font-weight="bold" opacity="0.9" text-anchor="end" x="638.5721903357082" y="93.86492172153196">DeepSeek-R1</text><text fill="#333333" font-size="8" font-weight="bold" opacity="0.15" text-anchor="start" x="1082.9080159456262" y="443.0792355431022">Transformers</text><text fill="#1A1A1A" font-size="8" font-weight="bold" opacity="0.9" text-anchor="start" x="1082.4080159456262" y="442.5792355431022">Transformers</text><text fill="#333333" font-size="8" font-weight="bold" opacity="0.15" text-anchor="end" x="526.5437915365345" y="120.85389638218847">DALL-E 2</text><text fill="#1A1A1A" font-size="8" font-weight="bold" opacity="0.9" text-anchor="end" x="526.0437915365345" y="120.35389638218847">DALL-E 2</text><text fill="#333333" font-size="8" font-weight="bold" opacity="0.15" text-anchor="end" x="418.4906300691573" y="147.99652302344398">Midjourney</text><text fill="#1A1A1A" font-size="8" font-weight="bold" opacity="0.9" text-anchor="end" x="417.9906300691573" y="147.49652302344398">Midjourney</text><text fill="#333333" font-size="8" font-weight="bold" opacity="0.15" text-anchor="start" x="852.535990081668" y="858.054641878044">Backpropagation</text><text fill="#1A1A1A" font-size="8" font-weight="bold" opacity="0.9" text-anchor="start" x="852.035990081668" y="857.554641878044">Backpropagation</text><text fill="#333333" font-size="8" font-weight="bold" opacity="0.15" text-anchor="end" x="298.4990850684875" y="266.46894554439393">AlphaGo</text><text fill="#1A1A1A" font-size="8" font-weight="bold" opacity="0.9" text-anchor="end" x="297.9990850684875" y="265.96894554439393">AlphaGo</text><text fill="#333333" font-size="8" font-weight="bold" opacity="0.15" text-anchor="start" x="614.3923167586343" y="694.8428332994537">Perceptron</text><text fill="#1A1A1A" font-size="8" font-weight="bold" opacity="0.9" text-anchor="start" x="613.8923167586343" y="694.3428332994537">Perceptron</text><text fill="#333333" font-size="7" font-weight="normal" opacity="0.15" text-anchor="end" x="477.27789462912574" y="993.2494854320222">CNNs</text><text fill="#1A1A1A" font-size="7" font-weight="normal" opacity="0.9" text-anchor="end" x="476.77789462912574" y="992.7494854320222">CNNs</text><text fill="#333333" font-size="7" font-weight="normal" opacity="0.15" text-anchor="end" x="534.8726510446879" y="1082.9906318147475">LSTM</text><text fill="#1A1A1A" font-size="7" font-weight="normal" opacity="0.9" text-anchor="end" x="534.3726510446879" y="1082.4906318147475">LSTM</text><text fill="#333333" font-size="7" font-weight="normal" opacity="0.15" text-anchor="end" x="658.1208422115491" y="1220.640697380501">GANs</text><text fill="#1A1A1A" font-size="7" font-weight="normal" opacity="0.9" text-anchor="end" x="657.6208422115491" y="1220.140697380501">GANs</text><text fill="#333333" font-size="7" font-weight="normal" opacity="0.15" text-anchor="start" x="1052.9060887368796" y="1082.9856032941543">GPT-4V</text><text fill="#1A1A1A" font-size="7" font-weight="normal" opacity="0.9" text-anchor="start" x="1052.4060887368796" y="1082.4856032941543">GPT-4V</text><text fill="#333333" font-size="7" font-weight="normal" opacity="0.15" text-anchor="start" x="1011.0077711230282" y="1084.44627455014">GPT-2</text><text fill="#1A1A1A" font-size="7" font-weight="normal" opacity="0.9" text-anchor="start" x="1010.5077711230282" y="1083.94627455014">GPT-2</text><text fill="#333333" font-size="7" font-weight="normal" opacity="0.15" text-anchor="start" x="1152.8591203417307" y="934.7204998238825">Claude 3 Opus</text><text fill="#1A1A1A" font-size="7" font-weight="normal" opacity="0.9" text-anchor="start" x="1152.3591203417307" y="934.2204998238825">Claude 3 Opus</text><text fill="#333333" font-size="7" font-weight="normal" opacity="0.15" text-anchor="start" x="1180.7168214957605" y="880.4849506529262">Gemini 2.5</text><text fill="#1A1A1A" font-size="7" font-weight="normal" opacity="0.9" text-anchor="start" x="1180.2168214957605" y="879.9849506529262">Gemini 2.5</text><text fill="#333333" font-size="7" font-weight="normal" opacity="0.15" text-anchor="start" x="1167.0870644778852" y="845.5712146450348">PaLM</text><text fill="#1A1A1A" font-size="7" font-weight="normal" opacity="0.9" text-anchor="start" x="1166.5870644778852" y="845.0712146450348">PaLM</text><text fill="#333333" font-size="7" font-weight="normal" opacity="0.15" text-anchor="start" x="1137.3418412800816" y="533.970094744698">T5</text><text fill="#1A1A1A" font-size="7" font-weight="normal" opacity="0.9" text-anchor="start" x="1136.8418412800816" y="533.470094744698">T5</text><text fill="#333333" font-size="7" font-weight="normal" opacity="0.15" text-anchor="start" x="1106.751905408844" y="423.06633880395555">DALL-E</text><text fill="#1A1A1A" font-size="7" font-weight="normal" opacity="0.9" text-anchor="start" x="1106.251905408844" y="422.56633880395555">DALL-E</text><text fill="#333333" font-size="7" font-weight="normal" opacity="0.15" text-anchor="start" x="1092.213460004777" y="398.0461996521495">CLIP</text><text fill="#1A1A1A" font-size="7" font-weight="normal" opacity="0.9" text-anchor="start" x="1091.713460004777" y="397.5461996521495">CLIP</text><text fill="#333333" font-size="7" font-weight="normal" opacity="0.15" text-anchor="end" x="975.6895326795642" y="290.99216568516283">ViT</text><text fill="#1A1A1A" font-size="7" font-weight="normal" opacity="0.9" text-anchor="end" x="975.1895326795642" y="290.49216568516283">ViT</text><text fill="#333333" font-size="7" font-weight="normal" opacity="0.15" text-anchor="end" x="911.2380826110818" y="188.44995718784486">Qwen-2.5-Max</text><text fill="#1A1A1A" font-size="7" font-weight="normal" opacity="0.9" text-anchor="end" x="910.7380826110818" y="187.94995718784486">Qwen-2.5-Max</text><text fill="#333333" font-size="7" font-weight="normal" opacity="0.15" text-anchor="end" x="468.37027274156424" y="116.87735734507619">SD 3</text><text fill="#1A1A1A" font-size="7" font-weight="normal" opacity="0.9" text-anchor="end" x="467.87027274156424" y="116.37735734507619">SD 3</text><text fill="#333333" font-size="7" font-weight="normal" opacity="0.15" text-anchor="end" x="238.48309732552542" y="277.9870049349815">RLHF</text><text fill="#1A1A1A" font-size="7" font-weight="normal" opacity="0.9" text-anchor="end" x="237.98309732552542" y="277.4870049349815">RLHF</text></g><g id="timeline" opacity="0.25"><path d="M 578.8222814113059,721.1777185886941 A 29.949816848251988,29.949816848251988 0 1,1 578.8222814113059,678.8222814113059" fill="none" stroke="#BDC3C7" stroke-width="0.5" /><text fill="#7F8C8D" font-family="Arial, sans-serif" font-size="6" opacity="0.7" text-anchor="middle" x="600.0" y="741.949816848252">1960</text><path d="M 502.8802097260339,797.1197902739661 A 137.34812458027346,137.34812458027346 0 1,1 502.8802097260339,602.8802097260339" fill="none" stroke="#BDC3C7" stroke-width="0.5" /><text fill="#7F8C8D" font-family="Arial, sans-serif" font-size="6" opacity="0.7" text-anchor="middle" x="600.0" y="849.3481245802734">1970</text><path d="M 437.42155871647054,862.5784412835295 A 229.9206366126453,229.9206366126453 0 1,1 437.42155871647054,537.4215587164705" fill="none" stroke="#BDC3C7" stroke-width="0.5" /><text fill="#7F8C8D" font-family="Arial, sans-serif" font-size="6" opacity="0.7" text-anchor="middle" x="600.0" y="941.9206366126452">1980</text><path d="M 376.4466623207678,923.5533376792323 A 316.15216205974247,316.15216205974247 0 1,1 376.4466623207678,476.44666232076776" fill="none" stroke="#BDC3C7" stroke-width="0.5" /><text fill="#7F8C8D" font-family="Arial, sans-serif" font-size="6" opacity="0.7" text-anchor="middle" x="600.0" y="1028.1521620597425">1990</text><path d="M 318.31379839991126,981.6862016000888 A 398.36444663620733,398.36444663620733 0 1,1 318.31379839991126,418.3137983999112" fill="none" stroke="#BDC3C7" stroke-width="0.5" /><text fill="#7F8C8D" font-family="Arial, sans-serif" font-size="6" opacity="0.7" text-anchor="middle" x="600.0" y="1110.3644466362073">2000</text><path d="M 262.2413198855847,1037.7586801144153 A 477.66290622704196,477.66290622704196 0 1,1 262.2413198855847,362.24131988558463" fill="none" stroke="#BDC3C7" stroke-width="0.5" /><text fill="#7F8C8D" font-family="Arial, sans-serif" font-size="6" opacity="0.7" text-anchor="middle" x="600.0" y="1189.662906227042">2010</text><path d="M 207.77378876583572,1092.2262112341643 A 554.6916274455696,554.6916274455696 0 1,1 207.77378876583572,307.77378876583566" fill="none" stroke="#BDC3C7" stroke-width="0.5" /><text fill="#7F8C8D" font-family="Arial, sans-serif" font-size="6" opacity="0.7" text-anchor="middle" x="600.0" y="1266.6916274455696">2020</text><path d="M 181.0451146125298,1118.9548853874703 A 592.491680937426,592.491680937426 0 1,1 181.0451146125298,281.04511461252974" fill="none" stroke="#BDC3C7" stroke-dasharray="2,3" stroke-width="0.5" /><text fill="#7F8C8D" font-family="Arial, sans-serif" font-size="6" opacity="0.7" text-anchor="middle" x="600.0" y="1304.491680937426">2025</text></g><g id="title"><text fill="#1C2833" font-family="Georgia, serif" font-size="20" font-weight="bold" text-anchor="middle" x="600.0" y="40">The Phylogenetic Tree of Artificial Intelligence</text><text fill="#515A5A" font-family="Georgia, serif" font-size="11" font-style="italic" text-anchor="middle" x="600.0" y="60">Evolution from Perceptrons to AGI  19582025</text></g><g id="legend"><rect fill="#9370DB" height="8" opacity="0.8" rx="2" width="10" x="50" y="75" /><text fill="#515A5A" font-family="Arial, sans-serif" font-size="6" x="65" y="82">CNNs</text><rect fill="#00CED1" height="8" opacity="0.8" rx="2" width="10" x="170" y="75" /><text fill="#515A5A" font-family="Arial, sans-serif" font-size="6" x="185" y="82">Transformers</text><rect fill="#00BFFF" height="8" opacity="0.8" rx="2" width="10" x="290" y="75" /><text fill="#515A5A" font-family="Arial, sans-serif" font-size="6" x="305" y="82">GPT</text><rect fill="#7B68EE" height="8" opacity="0.8" rx="2" width="10" x="410" y="75" /><text fill="#515A5A" font-family="Arial, sans-serif" font-size="6" x="425" y="82">Claude</text><rect fill="#FF4500" height="8" opacity="0.8" rx="2" width="10" x="50" y="90" /><text fill="#515A5A" font-family="Arial, sans-serif" font-size="6" x="65" y="97">LLaMA</text><rect fill="#008B8B" height="8" opacity="0.8" rx="2" width="10" x="170" y="90" /><text fill="#515A5A" font-family="Arial, sans-serif" font-size="6" x="185" y="97">Gemini</text><rect fill="#FF1493" height="8" opacity="0.8" rx="2" width="10" x="290" y="90" /><text fill="#515A5A" font-family="Arial, sans-serif" font-size="6" x="305" y="97">Diffusion</text><rect fill="#DC143C" height="8" opacity="0.8" rx="2" width="10" x="410" y="90" /><text fill="#515A5A" font-family="Arial, sans-serif" font-size="6" x="425" y="97">Chinese AI</text></g><g id="caption"><text fill="#7F8C8D" font-family="Georgia, serif" font-size="7" font-style="italic" opacity="0.85" text-anchor="middle" x="600.0" y="780">Visualizing 114 AI models  113 evolutionary connections  30 key innovations labeled</text></g></svg>